<?xml version="1.0" standalone="no"?><!-- Generator: Gravit.io --><svg xmlns="http://www.w3.org/2000/svg" xmlns:xlink="http://www.w3.org/1999/xlink" style="isolation:isolate" viewBox="93.619 93 64 64" width="64" height="64"><g filter="url(#WbZG7AdfnO8jNRtmy7sPE3ufu7PP8sFP)"><path d=" M 125.613 113.83 C 131.778 113.83 136.777 118.828 136.777 124.994 C 136.777 131.16 131.778 136.158 125.613 136.158 C 119.447 136.158 114.449 131.16 114.449 124.994 C 114.449 118.828 119.447 113.83 125.613 113.83 L 125.613 113.83 Z  M 125.613 110.411 C 126.261 110.411 126.792 109.881 126.792 109.233 L 126.792 100.179 C 126.792 99.53 126.261 99 125.613 99 C 124.964 99 124.434 99.53 124.434 100.179 L 124.434 109.233 C 124.434 109.881 124.964 110.411 125.613 110.411 L 125.613 110.411 Z  M 126.792 149.821 L 126.792 140.767 C 126.792 140.119 126.261 139.589 125.613 139.589 C 124.964 139.589 124.434 140.119 124.434 140.767 L 124.434 149.821 C 124.434 150.47 124.964 151 125.613 151 C 126.261 151 126.792 150.47 126.792 149.821 Z  M 140.207 124.994 C 140.207 125.642 140.738 126.173 141.386 126.173 L 150.44 126.173 C 151.088 126.173 151.619 125.642 151.619 124.994 C 151.619 124.346 151.088 123.815 150.44 123.815 L 141.386 123.815 C 140.738 123.815 140.207 124.346 140.207 124.994 Z  M 100.797 126.173 L 109.851 126.173 C 110.5 126.173 111.03 125.642 111.03 124.994 C 111.03 124.346 110.5 123.815 109.851 123.815 L 100.797 123.815 C 100.149 123.815 99.619 124.346 99.619 124.994 C 99.619 125.642 100.149 126.173 100.797 126.173 L 100.797 126.173 Z  M 136.765 115.021 C 137.071 115.021 137.366 114.903 137.602 114.679 L 144.003 108.278 C 144.462 107.819 144.462 107.075 144.003 106.616 C 143.544 106.157 142.8 106.157 142.341 106.616 L 135.94 113.017 C 135.719 113.237 135.595 113.536 135.595 113.848 C 135.595 114.16 135.719 114.459 135.94 114.679 C 136.164 114.915 136.47 115.021 136.765 115.021 Z  M 113.635 135.321 L 107.234 141.722 C 106.898 142.059 106.798 142.566 106.981 143.005 C 107.165 143.444 107.595 143.729 108.071 143.726 C 108.378 143.726 108.672 143.608 108.908 143.384 L 115.309 136.983 C 115.53 136.763 115.654 136.464 115.654 136.152 C 115.654 135.84 115.53 135.541 115.309 135.321 C 114.838 134.861 114.095 134.861 113.635 135.321 Z  M 143.166 143.726 C 143.473 143.726 143.767 143.608 144.003 143.384 C 144.224 143.164 144.348 142.865 144.348 142.553 C 144.348 142.242 144.224 141.943 144.003 141.722 L 137.602 135.321 C 137.305 135.024 136.872 134.908 136.466 135.017 C 136.061 135.125 135.744 135.442 135.635 135.848 C 135.527 136.254 135.643 136.686 135.94 136.983 L 142.341 143.384 C 142.565 143.608 142.871 143.726 143.166 143.726 Z  M 113.635 114.679 C 113.871 114.915 114.166 115.021 114.472 115.021 C 114.779 115.021 115.074 114.903 115.309 114.679 C 115.53 114.459 115.654 114.16 115.654 113.848 C 115.654 113.536 115.53 113.237 115.309 113.017 L 108.908 106.616 C 108.611 106.319 108.178 106.203 107.773 106.311 C 107.367 106.42 107.05 106.737 106.942 107.142 C 106.833 107.548 106.949 107.981 107.246 108.278 L 113.635 114.679 L 113.635 114.679 Z " fill="rgb(255,255,255)"/></g><defs><filter id="WbZG7AdfnO8jNRtmy7sPE3ufu7PP8sFP" x="93.619" y="93" width="64" height="64" filterUnits="userSpaceOnUse"><feGaussianBlur xmlns="http://www.w3.org/2000/svg" in="SourceGraphic" stdDeviation="0.8587218125678057"/><feOffset xmlns="http://www.w3.org/2000/svg" dx="0" dy="0" result="pf_100_offsetBlur"/><feFlood xmlns="http://www.w3.org/2000/svg" flood-color="#000000" flood-opacity="0.65"/><feComposite xmlns="http://www.w3.org/2000/svg" in2="pf_100_offsetBlur" operator="in" result="pf_100_dropShadow"/><feBlend xmlns="http://www.w3.org/2000/svg" in="SourceGraphic" in2="pf_100_dropShadow" mode="normal"/></filter></defs></svg>