<?xml version="1.0" standalone="no"?><!-- Generator: Gravit.io --><svg xmlns="http://www.w3.org/2000/svg" xmlns:xlink="http://www.w3.org/1999/xlink" style="isolation:isolate" viewBox="230 37.353 52 43.482" width="64" height="64"><path d=" M 261.114 58.482 C 264.876 58.482 267.977 62.352 268.36 67.319 C 268.477 67.319 268.584 67.305 268.69 67.305 C 269.287 67.305 269.863 67.377 270.406 67.521 C 271.045 65.543 271.258 63.29 270.928 61.009 C 270.054 55.059 265.792 51.189 261.391 52.359 C 260.326 52.648 259.345 53.211 258.493 53.976 C 259.271 55.348 259.878 56.879 260.241 58.554 C 260.539 58.496 260.827 58.482 261.114 58.482 L 261.114 58.482 Z  M 270.012 52.677 C 270.204 52.922 270.449 53.038 270.694 53.038 C 270.971 53.038 271.237 52.893 271.44 52.59 L 275.872 46.005 C 276.249 45.447 276.22 44.581 275.808 44.07 C 275.396 43.56 274.757 43.599 274.381 44.157 L 269.948 50.742 C 269.575 51.305 269.607 52.171 270.012 52.677 L 270.012 52.677 Z  M 262.095 37.356 C 261.541 37.384 261.104 38.034 261.125 38.785 L 261.423 47.68 C 261.445 48.417 261.892 48.994 262.436 48.994 L 262.478 48.994 C 263.032 48.966 263.469 48.316 263.448 47.565 L 263.15 38.67 C 263.128 37.904 262.659 37.312 262.095 37.356 L 262.095 37.356 Z  M 280.944 60.648 L 274.381 61.052 C 273.826 61.081 273.39 61.731 273.411 62.482 C 273.432 63.218 273.88 63.796 274.423 63.796 L 274.466 63.796 L 281.03 63.391 C 281.584 63.363 282.021 62.713 281.999 61.962 C 281.978 61.211 281.509 60.604 280.944 60.648 Z  M 268.701 69.615 C 268.36 69.615 268.008 69.644 267.657 69.702 L 266.677 69.861 L 266.698 68.446 L 266.698 68.359 C 266.698 64.186 264.194 60.792 261.114 60.792 C 260.677 60.792 260.241 60.864 259.814 60.994 L 258.962 61.269 L 258.781 60.114 C 257.864 54.28 253.645 50.049 248.733 50.049 C 243.096 50.049 238.503 55.608 238.503 62.438 C 238.503 63.608 238.642 64.763 238.897 65.875 L 239.302 67.565 L 238.002 67.377 C 237.576 67.319 237.139 67.29 236.713 67.29 C 232.696 67.29 230 70.005 230 74.063 C 230 77.947 232.312 80.518 236.031 80.806 L 267.742 80.835 L 267.742 80.806 L 268.701 80.821 C 271.749 80.821 273.794 78.568 273.794 75.218 C 273.794 71.868 271.749 69.615 268.701 69.615 L 268.701 69.615 Z " fill="rgb(255,255,255)"/></svg>