<?xml version="1.0" standalone="no"?><!-- Generator: Gravit.io --><svg xmlns="http://www.w3.org/2000/svg" xmlns:xlink="http://www.w3.org/1999/xlink" style="isolation:isolate" viewBox="182.206 68 49.794 29.237" width="64" height="64"><defs><filter id="74c0fTBRNpTHYZ82Cob77Zd7HxuizxVJ" x="182.206" y="68" width="49.794" height="29.237" filterUnits="userSpaceOnUse"><feGaussianBlur xmlns="http://www.w3.org/2000/svg" in="SourceGraphic" stdDeviation="0.8587218125678057"/><feOffset xmlns="http://www.w3.org/2000/svg" dx="0" dy="0" result="pf_100_offsetBlur"/><feFlood xmlns="http://www.w3.org/2000/svg" flood-color="#000000" flood-opacity="0.65"/><feComposite xmlns="http://www.w3.org/2000/svg" in2="pf_100_offsetBlur" operator="in" result="pf_100_dropShadow"/><feBlend xmlns="http://www.w3.org/2000/svg" in="SourceGraphic" in2="pf_100_dropShadow" mode="normal"/></filter></defs><g filter="url(#74c0fTBRNpTHYZ82Cob77Zd7HxuizxVJ)"><path d=" M 223.907 85.769 C 223.566 85.769 223.214 85.79 222.862 85.834 L 221.882 85.954 L 221.903 84.886 L 221.903 84.82 C 221.903 81.67 219.399 79.109 216.32 79.109 C 215.883 79.109 215.446 79.164 215.02 79.262 L 214.167 79.469 L 213.986 78.597 C 213.07 74.193 208.85 71 203.938 71 C 198.301 71 193.709 75.196 193.709 80.352 C 193.709 81.234 193.847 82.106 194.103 82.946 L 194.508 84.221 L 193.208 84.079 C 192.782 84.036 192.345 84.014 191.919 84.014 C 187.901 84.014 185.206 86.063 185.206 89.125 C 185.206 92.057 187.518 93.997 191.237 94.215 L 222.948 94.237 L 222.948 94.215 L 223.907 94.226 C 226.954 94.226 229 92.526 229 89.997 C 229 87.469 226.954 85.769 223.907 85.769 L 223.907 85.769 Z  M 196 75" fill="rgb(255,255,255)"/></g></svg>