<?xml version="1.0" standalone="no"?><!-- Generator: Gravit.io --><svg xmlns="http://www.w3.org/2000/svg" xmlns:xlink="http://www.w3.org/1999/xlink" style="isolation:isolate" viewBox="355.802 39.664 58 34.378" width="64" height="64"><g><defs><filter id="3b8hsj6GClFeTaXZEs9uffo7P6lhPBSo" x="380.233" y="39.664" width="32.986" height="20.727" filterUnits="userSpaceOnUse"><feGaussianBlur xmlns="http://www.w3.org/2000/svg" in="SourceGraphic" stdDeviation="0.8587218125678057"/><feOffset xmlns="http://www.w3.org/2000/svg" dx="0" dy="0" result="pf_100_offsetBlur"/><feFlood xmlns="http://www.w3.org/2000/svg" flood-color="#000000" flood-opacity="0.65"/><feComposite xmlns="http://www.w3.org/2000/svg" in2="pf_100_offsetBlur" operator="in" result="pf_100_dropShadow"/><feBlend xmlns="http://www.w3.org/2000/svg" in="SourceGraphic" in2="pf_100_dropShadow" mode="normal"/></filter></defs><g filter="url(#3b8hsj6GClFeTaXZEs9uffo7P6lhPBSo)"><path d=" M 399.424 57.379 M 387.303 57.379 L 406.63 57.392 L 406.693 57.392 C 408.937 57.392 410.22 56.048 410.22 54.382 C 410.22 52.716 408.937 51.372 406.693 51.372 C 406.459 51.372 406.232 51.385 406.01 51.417 L 406.01 51.334 C 406.01 49.186 404.298 47.449 402.193 47.449 C 401.89 47.449 401.593 47.488 401.308 47.558 C 400.727 44.774 398.06 42.664 394.856 42.664 C 391.228 42.664 388.283 45.365 388.283 48.697 C 388.283 49.282 388.371 49.848 388.542 50.382 C 388.269 50.353 387.995 50.338 387.72 50.337 C 384.857 50.337 383.233 51.919 383.233 53.867 C 383.233 55.713 384.636 57.231 387.303 57.379 L 387.303 57.379 Z " fill="rgb(185,185,185)"/></g><defs><filter id="Id62NjG0k7ZhOSgMiDmILw9ivuJduebU" x="355.802" y="39.664" width="58" height="34.378" filterUnits="userSpaceOnUse"><feGaussianBlur xmlns="http://www.w3.org/2000/svg" in="SourceGraphic" stdDeviation="0.8587218125678057"/><feOffset xmlns="http://www.w3.org/2000/svg" dx="0" dy="0" result="pf_100_offsetBlur"/><feFlood xmlns="http://www.w3.org/2000/svg" flood-color="#000000" flood-opacity="0.65"/><feComposite xmlns="http://www.w3.org/2000/svg" in2="pf_100_offsetBlur" operator="in" result="pf_100_dropShadow"/><feBlend xmlns="http://www.w3.org/2000/svg" in="SourceGraphic" in2="pf_100_dropShadow" mode="normal"/></filter></defs><g filter="url(#Id62NjG0k7ZhOSgMiDmILw9ivuJduebU)"><path d=" M 390 71.018 M 366.645 71.018 L 403.885 71.042 L 404.007 71.042 C 408.33 71.042 410.802 68.452 410.802 65.243 C 410.802 62.033 408.33 59.443 404.007 59.443 C 403.556 59.443 403.118 59.468 402.692 59.53 L 402.692 59.369 C 402.692 55.23 399.391 51.884 395.336 51.884 C 394.751 51.884 394.179 51.958 393.631 52.095 C 392.511 46.729 387.372 42.664 381.197 42.664 C 374.207 42.664 368.532 47.869 368.532 54.288 C 368.532 55.416 368.703 56.506 369.032 57.535 C 368.506 57.48 367.977 57.451 367.448 57.448 C 361.932 57.448 358.802 60.497 358.802 64.252 C 358.802 67.808 361.506 70.733 366.645 71.018 L 366.645 71.018 Z " fill="rgb(255,255,255)"/></g></g></svg>