<?xml version="1.0" standalone="no"?><!-- Generator: Gravit.io --><svg xmlns="http://www.w3.org/2000/svg" xmlns:xlink="http://www.w3.org/1999/xlink" style="isolation:isolate" viewBox="27.513 6 58 58" width="64" height="64"><defs><filter id="WrasNsyT32I6iDMcMY6zIcxV637NQbng" x="27.513" y="6" width="58" height="58" filterUnits="userSpaceOnUse"><feGaussianBlur xmlns="http://www.w3.org/2000/svg" in="SourceGraphic" stdDeviation="0.8587218125678057"/><feOffset xmlns="http://www.w3.org/2000/svg" dx="0" dy="0" result="pf_100_offsetBlur"/><feFlood xmlns="http://www.w3.org/2000/svg" flood-color="#000000" flood-opacity="0.65"/><feComposite xmlns="http://www.w3.org/2000/svg" in2="pf_100_offsetBlur" operator="in" result="pf_100_dropShadow"/><feBlend xmlns="http://www.w3.org/2000/svg" in="SourceGraphic" in2="pf_100_dropShadow" mode="normal"/></filter></defs><g filter="url(#WrasNsyT32I6iDMcMY6zIcxV637NQbng)"><path d=" M 38.356 41.08 L 75.596 41.108 L 75.718 41.108 C 80.053 41.108 82.513 38.18 82.513 34.552 C 82.513 30.937 80.041 27.996 75.718 27.996 C 75.267 27.996 74.829 28.024 74.403 28.094 L 74.403 27.912 C 74.403 23.233 71.102 19.45 67.047 19.45 C 66.463 19.45 65.89 19.534 65.342 19.689 C 64.222 13.595 59.083 9 52.909 9 C 45.918 9 40.243 14.884 40.243 22.14 C 40.243 23.415 40.414 24.648 40.743 25.81 C 40.217 25.749 39.688 25.716 39.16 25.712 C 33.643 25.712 30.513 29.158 30.513 33.403 C 30.513 37.451 33.217 40.757 38.356 41.08 Z  M 43.166 46.809 C 43.166 46.809 39.561 54.556 39.561 56.853 C 39.561 59.143 41.175 61 43.166 61 C 45.157 61 46.771 59.143 46.771 56.853 C 46.771 54.57 43.166 46.809 43.166 46.809 L 43.166 46.809 Z  M 60.13 56.853 C 60.13 54.556 56.525 46.809 56.525 46.809 C 56.525 46.809 52.909 54.57 52.909 56.853 C 52.909 59.137 54.528 61 56.513 61 C 58.51 61.014 60.13 59.151 60.13 56.853 L 60.13 56.853 Z  M 73.477 56.853 C 73.477 54.556 69.872 46.809 69.872 46.809 C 69.872 46.809 66.268 54.556 66.268 56.853 C 66.268 59.151 67.887 61 69.872 61 C 71.857 61.014 73.477 59.151 73.477 56.853 Z " fill="rgb(255,255,255)"/></g></svg>