<?xml version="1.0" standalone="no"?><!-- Generator: Gravit.io --><svg xmlns="http://www.w3.org/2000/svg" xmlns:xlink="http://www.w3.org/1999/xlink" style="isolation:isolate" viewBox="398.552 6 58 58" width="64" height="64"><defs><filter id="FXFR8FWBU8kPWYsznXiKh6sO2tG4brAF" x="398.552" y="6" width="58" height="58" filterUnits="userSpaceOnUse"><feGaussianBlur xmlns="http://www.w3.org/2000/svg" in="SourceGraphic" stdDeviation="0.8587218125678057"/><feOffset xmlns="http://www.w3.org/2000/svg" dx="0" dy="0" result="pf_100_offsetBlur"/><feFlood xmlns="http://www.w3.org/2000/svg" flood-color="#000000" flood-opacity="0.65"/><feComposite xmlns="http://www.w3.org/2000/svg" in2="pf_100_offsetBlur" operator="in" result="pf_100_dropShadow"/><feBlend xmlns="http://www.w3.org/2000/svg" in="SourceGraphic" in2="pf_100_dropShadow" mode="normal"/></filter></defs><g filter="url(#FXFR8FWBU8kPWYsznXiKh6sO2tG4brAF)"><path d=" M 407.313 45.495 C 406.704 46.895 407.325 48.531 408.701 49.151 C 410.076 49.77 411.685 49.138 412.293 47.738 C 412.902 46.338 412.476 40.489 412.476 40.489 C 412.476 40.489 407.921 44.095 407.313 45.495 Z  M 417.128 45.495 C 416.519 46.895 417.141 48.531 418.516 49.151 C 419.892 49.77 421.5 49.138 422.109 47.738 C 422.718 46.338 422.291 40.489 422.291 40.489 C 422.291 40.489 417.737 44.095 417.128 45.495 Z  M 426.956 45.495 C 426.347 46.895 426.969 48.531 428.344 49.151 C 429.719 49.77 431.328 49.138 431.936 47.738 C 432.545 46.338 432.119 40.489 432.119 40.489 C 432.119 40.489 427.565 44.095 426.956 45.495 Z  M 443.128 47.738 C 443.737 46.338 443.311 40.489 443.311 40.489 C 443.311 40.489 438.768 44.095 438.159 45.495 C 437.55 46.895 438.172 48.531 439.548 49.151 C 440.899 49.77 442.519 49.138 443.128 47.738 L 443.128 47.738 Z  M 409.87 57.107 C 409.261 58.506 409.883 60.143 411.258 60.762 C 412.634 61.382 414.242 60.749 414.851 59.35 C 415.46 57.949 415.033 52.1 415.033 52.1 C 415.033 52.1 410.479 55.706 409.87 57.107 Z  M 419.685 57.107 C 419.077 58.506 419.698 60.143 421.074 60.762 C 422.449 61.382 424.058 60.749 424.666 59.35 C 425.275 57.949 424.849 52.1 424.849 52.1 C 424.849 52.1 420.294 55.706 419.685 57.107 L 419.685 57.107 Z  M 429.513 57.107 C 428.904 58.506 429.526 60.143 430.901 60.762 C 432.277 61.382 433.885 60.749 434.494 59.35 C 435.103 57.949 434.676 52.1 434.676 52.1 C 434.676 52.1 430.122 55.706 429.513 57.107 Z  M 409.395 37.353 L 446.635 37.378 L 446.757 37.378 C 451.08 37.378 453.552 34.788 453.552 31.579 C 453.552 28.369 451.08 25.779 446.757 25.779 C 446.306 25.779 445.868 25.804 445.442 25.866 L 445.442 25.705 C 445.442 21.566 442.142 18.22 438.086 18.22 C 437.502 18.22 436.929 18.294 436.381 18.43 C 435.261 13.065 430.122 9 423.948 9 C 416.958 9 411.283 14.205 411.283 20.624 C 411.283 21.752 411.453 22.842 411.782 23.871 C 411.256 23.816 410.728 23.787 410.199 23.784 C 404.682 23.784 401.552 26.832 401.552 30.587 C 401.552 34.144 404.256 37.068 409.395 37.353 L 409.395 37.353 Z " fill="rgb(255,255,255)"/></g></svg>