<?xml version="1.0" standalone="no"?><!-- Generator: Gravit.io --><svg xmlns="http://www.w3.org/2000/svg" xmlns:xlink="http://www.w3.org/1999/xlink" style="isolation:isolate" viewBox="395.868 178.717 66.667 58" width="64" height="64"><defs><filter id="mb1fPrGUzXdUt5ss3w6is6oRRrgLCy3i" x="395.868" y="178.717" width="66.667" height="58" filterUnits="userSpaceOnUse"><feGaussianBlur xmlns="http://www.w3.org/2000/svg" in="SourceGraphic" stdDeviation="0.8587218125678057"/><feOffset xmlns="http://www.w3.org/2000/svg" dx="0" dy="0" result="pf_100_offsetBlur"/><feFlood xmlns="http://www.w3.org/2000/svg" flood-color="#000000" flood-opacity="0.65"/><feComposite xmlns="http://www.w3.org/2000/svg" in2="pf_100_offsetBlur" operator="in" result="pf_100_dropShadow"/><feBlend xmlns="http://www.w3.org/2000/svg" in="SourceGraphic" in2="pf_100_dropShadow" mode="normal"/></filter></defs><g filter="url(#mb1fPrGUzXdUt5ss3w6is6oRRrgLCy3i)"><path d=" M 428.363 197.872 L 435.921 197.872 C 436.887 197.872 437.768 198.411 438.209 199.278 C 438.647 200.137 438.565 201.17 437.995 201.949 L 433.605 207.931 L 440.183 207.931 C 441.59 207.931 442.741 209.081 442.741 210.488 C 442.741 211.156 442.485 211.767 442.059 212.221 L 440.226 214.239 L 451.464 214.253 L 451.606 214.253 C 456.65 214.253 459.534 211.284 459.534 207.604 C 459.534 203.938 456.65 200.955 451.606 200.955 C 451.081 200.955 450.569 200.983 450.072 201.054 L 450.072 200.869 C 450.072 196.124 446.222 192.288 441.491 192.288 C 440.809 192.288 440.141 192.373 439.502 192.529 C 438.194 186.378 432.199 181.717 424.995 181.717 C 416.84 181.717 410.22 187.685 410.22 195.044 C 410.22 196.337 410.418 197.587 410.802 198.767 C 410.188 198.704 409.572 198.671 408.955 198.667 C 402.519 198.667 398.868 202.162 398.868 206.467 C 398.868 210.559 402.022 213.912 408.003 214.239 L 415.746 214.239 L 426.246 198.994 C 426.729 198.284 427.524 197.872 428.363 197.872 L 428.363 197.872 Z  M 440.169 210.488 L 428.547 210.488 L 435.921 200.429 L 428.363 200.429 L 417.281 216.512 L 428.746 216.512 L 425.55 222.252 L 419.142 233.717 L 440.169 210.488 Z " fill="rgb(255,255,255)"/></g></svg>