<?xml version="1.0" standalone="no"?><!-- Generator: Gravit.io --><svg xmlns="http://www.w3.org/2000/svg" xmlns:xlink="http://www.w3.org/1999/xlink" style="isolation:isolate" viewBox="182.206 68 49.794 48.418" width="64" height="64"><defs><filter id="Dg0V1tMryKfpVlqPlQbFBJpKBTB815RS" x="182.206" y="68" width="49.794" height="48.418" filterUnits="userSpaceOnUse"><feGaussianBlur xmlns="http://www.w3.org/2000/svg" in="SourceGraphic" stdDeviation="0.8587218125678057"/><feOffset xmlns="http://www.w3.org/2000/svg" dx="0" dy="0" result="pf_100_offsetBlur"/><feFlood xmlns="http://www.w3.org/2000/svg" flood-color="#000000" flood-opacity="0.65"/><feComposite xmlns="http://www.w3.org/2000/svg" in2="pf_100_offsetBlur" operator="in" result="pf_100_dropShadow"/><feBlend xmlns="http://www.w3.org/2000/svg" in="SourceGraphic" in2="pf_100_dropShadow" mode="normal"/></filter></defs><g filter="url(#Dg0V1tMryKfpVlqPlQbFBJpKBTB815RS)"><path d=" M 223.907 85.769 C 223.566 85.769 223.214 85.79 222.862 85.834 L 221.882 85.954 L 221.903 84.886 L 221.903 84.82 C 221.903 81.67 219.399 79.109 216.32 79.109 C 215.883 79.109 215.446 79.164 215.02 79.262 L 214.167 79.469 L 213.986 78.597 C 213.07 74.193 208.85 71 203.938 71 C 198.301 71 193.709 75.196 193.709 80.352 C 193.709 81.234 193.847 82.106 194.103 82.946 L 194.508 84.221 L 193.208 84.079 C 192.782 84.036 192.345 84.014 191.919 84.014 C 187.901 84.014 185.206 86.063 185.206 89.125 C 185.206 92.057 187.518 93.997 191.237 94.215 L 222.948 94.237 L 222.948 94.215 L 223.907 94.226 C 226.954 94.226 229 92.526 229 89.997 C 229 87.469 226.954 85.769 223.907 85.769 L 223.907 85.769 Z  M 196.532 99.447 C 196.052 99.128 195.411 99.264 195.094 99.752 C 194.966 99.959 194.934 100.188 194.923 100.428 C 194.902 100.897 194.785 101.365 194.657 101.823 C 194.529 102.303 194.369 102.782 194.124 103.218 C 194.124 103.218 194.284 103.022 194.369 102.935 C 194.753 102.499 195.2 102.128 195.659 101.78 C 195.85 101.638 196.042 101.496 196.245 101.376 C 196.447 101.245 196.692 101.126 196.831 100.918 C 197.15 100.428 197.012 99.774 196.532 99.447 Z  M 192.846 104.679 C 192.483 104.973 192.11 105.267 191.705 105.485 C 191.492 105.594 191.301 105.714 191.173 105.921 C 190.861 106.412 190.994 107.069 191.471 107.393 C 191.951 107.711 192.593 107.575 192.91 107.087 C 193.048 106.88 193.059 106.608 193.08 106.357 C 193.112 106.117 193.155 105.878 193.208 105.638 C 193.325 105.071 193.474 104.493 193.709 103.97 C 193.762 103.861 193.869 103.632 193.869 103.632 C 193.591 104.025 193.219 104.374 192.846 104.679 L 192.846 104.679 Z  M 191.727 101.409 C 191.929 101.529 192.132 101.671 192.323 101.812 C 192.792 102.15 193.24 102.51 193.634 102.946 C 193.719 103.033 193.879 103.229 193.879 103.229 C 193.634 102.804 193.464 102.324 193.336 101.845 C 193.208 101.398 193.091 100.918 193.059 100.45 C 193.037 100.21 193.005 99.981 192.878 99.774 C 192.558 99.284 191.908 99.153 191.439 99.48 C 190.97 99.807 190.832 100.472 191.151 100.951 C 191.279 101.169 191.514 101.289 191.727 101.409 L 191.727 101.409 Z  M 196.33 105.453 C 195.914 105.246 195.541 104.951 195.179 104.657 C 194.796 104.352 194.433 104.014 194.135 103.611 C 194.135 103.611 194.241 103.839 194.295 103.948 C 194.54 104.472 194.7 105.049 194.828 105.616 C 194.881 105.856 194.934 106.096 194.966 106.335 C 194.998 106.575 195.019 106.859 195.147 107.066 C 195.467 107.556 196.117 107.687 196.586 107.36 C 197.055 107.033 197.193 106.368 196.873 105.889 C 196.735 105.681 196.543 105.562 196.33 105.453 L 196.33 105.453 Z  M 198.632 103.295 C 198.621 102.706 198.141 102.248 197.566 102.259 C 197.321 102.27 197.097 102.412 196.884 102.521 C 196.671 102.63 196.458 102.728 196.234 102.826 C 195.712 103.055 195.158 103.251 194.604 103.349 L 194.241 103.414 C 194.732 103.425 195.211 103.545 195.68 103.687 C 196.117 103.818 196.575 103.97 196.98 104.188 C 197.182 104.297 197.396 104.395 197.63 104.395 C 198.203 104.372 198.65 103.88 198.632 103.295 L 198.632 103.295 Z  M 189.372 103.545 C 189.383 104.134 189.862 104.592 190.437 104.581 C 190.672 104.57 190.874 104.472 191.077 104.341 C 191.471 104.101 191.919 103.927 192.345 103.774 C 192.803 103.611 193.282 103.469 193.762 103.436 C 193.762 103.436 193.517 103.414 193.4 103.393 C 192.835 103.316 192.281 103.153 191.737 102.957 C 191.514 102.869 191.29 102.793 191.077 102.695 C 190.853 102.597 190.619 102.455 190.374 102.466 C 189.809 102.466 189.361 102.957 189.372 103.545 L 189.372 103.545 Z  M 220.476 99.087 C 219.995 98.769 219.354 98.905 219.037 99.393 C 218.909 99.6 218.877 99.829 218.867 100.068 C 218.845 100.537 218.728 101.006 218.6 101.463 C 218.472 101.943 218.312 102.423 218.067 102.859 C 218.067 102.859 218.227 102.662 218.312 102.575 C 218.696 102.139 219.144 101.769 219.602 101.42 C 219.794 101.278 219.985 101.136 220.188 101.017 C 220.39 100.886 220.635 100.766 220.774 100.559 C 220.926 100.324 220.981 100.036 220.925 99.759 C 220.869 99.483 220.707 99.241 220.476 99.087 L 220.476 99.087 Z  M 216.789 104.319 C 216.426 104.613 216.053 104.908 215.649 105.126 C 215.435 105.235 215.244 105.354 215.116 105.562 C 214.804 106.053 214.937 106.709 215.414 107.033 C 215.894 107.352 216.536 107.216 216.853 106.728 C 216.991 106.521 217.002 106.248 217.023 105.998 C 217.055 105.758 217.098 105.518 217.151 105.278 C 217.268 104.711 217.417 104.134 217.652 103.611 C 217.705 103.502 217.812 103.273 217.812 103.273 C 217.535 103.654 217.172 104.003 216.789 104.319 L 216.789 104.319 Z  M 215.67 101.049 C 215.872 101.169 216.075 101.311 216.267 101.453 C 216.735 101.79 217.183 102.15 217.577 102.586 C 217.662 102.673 217.822 102.869 217.822 102.869 C 217.577 102.444 217.407 101.965 217.279 101.485 C 217.151 101.038 217.034 100.559 217.002 100.09 C 216.981 99.85 216.949 99.621 216.821 99.414 C 216.501 98.924 215.851 98.793 215.382 99.12 C 214.903 99.447 214.775 100.112 215.094 100.592 C 215.222 100.799 215.457 100.918 215.67 101.049 Z  M 220.273 105.093 C 219.858 104.886 219.485 104.592 219.122 104.297 C 218.739 103.992 218.376 103.654 218.078 103.251 C 218.078 103.251 218.185 103.48 218.238 103.589 C 218.483 104.112 218.643 104.69 218.771 105.256 C 218.824 105.496 218.877 105.736 218.909 105.976 C 218.941 106.216 218.962 106.499 219.09 106.706 C 219.41 107.196 220.06 107.327 220.529 107 C 220.998 106.673 221.136 106.008 220.817 105.529 C 220.678 105.311 220.486 105.202 220.273 105.093 L 220.273 105.093 Z  M 222.575 102.935 C 222.564 102.346 222.085 101.889 221.509 101.899 C 221.264 101.91 221.04 102.052 220.827 102.161 C 220.614 102.27 220.401 102.368 220.177 102.466 C 219.655 102.695 219.101 102.891 218.547 102.989 L 218.185 103.055 C 218.675 103.066 219.154 103.186 219.623 103.327 C 220.06 103.458 220.518 103.611 220.923 103.829 C 221.126 103.938 221.339 104.036 221.573 104.036 C 222.138 104.003 222.596 103.523 222.575 102.935 Z  M 213.315 103.175 C 213.326 103.763 213.805 104.221 214.381 104.21 C 214.615 104.199 214.817 104.101 215.02 103.97 C 215.414 103.731 215.862 103.556 216.288 103.404 C 216.746 103.24 217.226 103.098 217.705 103.066 C 217.705 103.066 217.46 103.044 217.343 103.022 C 216.778 102.946 216.224 102.782 215.681 102.586 C 215.457 102.499 215.233 102.423 215.02 102.324 C 214.796 102.226 214.562 102.085 214.317 102.096 C 213.75 102.113 213.303 102.595 213.315 103.175 Z  M 208.499 105.311 C 208.018 104.992 207.377 105.128 207.06 105.616 C 206.932 105.823 206.9 106.052 206.89 106.292 C 206.868 106.76 206.751 107.229 206.623 107.687 C 206.495 108.167 206.336 108.646 206.09 109.082 C 206.09 109.082 206.25 108.886 206.336 108.799 C 206.719 108.363 207.167 107.992 207.625 107.643 C 207.817 107.502 208.008 107.36 208.211 107.24 C 208.413 107.109 208.658 106.989 208.797 106.782 C 208.953 106.548 209.009 106.259 208.952 105.982 C 208.896 105.705 208.732 105.463 208.499 105.311 L 208.499 105.311 Z  M 204.822 110.532 C 204.46 110.826 204.087 111.12 203.682 111.338 C 203.469 111.447 203.277 111.567 203.15 111.774 C 202.838 112.265 202.971 112.922 203.448 113.246 C 203.928 113.564 204.57 113.428 204.886 112.94 C 205.025 112.733 205.036 112.461 205.057 112.21 C 205.089 111.97 205.131 111.731 205.185 111.491 C 205.302 110.924 205.451 110.346 205.686 109.812 C 205.739 109.703 205.845 109.474 205.845 109.474 C 205.558 109.878 205.195 110.226 204.822 110.532 L 204.822 110.532 Z  M 203.693 107.262 C 203.895 107.382 204.098 107.523 204.29 107.665 C 204.759 108.003 205.206 108.363 205.6 108.799 C 205.686 108.886 205.845 109.082 205.845 109.082 C 205.6 108.657 205.43 108.177 205.302 107.698 C 205.174 107.251 205.057 106.771 205.025 106.303 C 205.004 106.063 204.972 105.834 204.844 105.627 C 204.524 105.137 203.874 105.006 203.405 105.333 C 202.936 105.66 202.798 106.325 203.118 106.804 C 203.245 107.022 203.491 107.142 203.693 107.262 L 203.693 107.262 Z  M 208.307 111.316 C 207.891 111.109 207.518 110.815 207.156 110.521 C 206.772 110.216 206.41 109.878 206.112 109.474 C 206.112 109.474 206.218 109.703 206.272 109.812 C 206.517 110.335 206.677 110.913 206.804 111.48 C 206.858 111.72 206.911 111.959 206.943 112.199 C 206.975 112.439 206.996 112.722 207.124 112.929 C 207.444 113.42 208.094 113.551 208.563 113.224 C 209.031 112.897 209.17 112.232 208.85 111.752 C 208.712 111.534 208.509 111.414 208.307 111.316 L 208.307 111.316 Z  M 210.608 109.158 C 210.598 108.57 210.118 108.112 209.543 108.123 C 209.298 108.134 209.074 108.275 208.861 108.384 C 208.648 108.493 208.435 108.592 208.211 108.69 C 207.689 108.928 207.142 109.103 206.581 109.213 L 206.218 109.278 C 206.709 109.289 207.188 109.409 207.657 109.54 C 208.094 109.671 208.552 109.823 208.957 110.041 C 209.159 110.15 209.372 110.248 209.607 110.248 C 210.172 110.226 210.619 109.736 210.608 109.158 L 210.608 109.158 Z  M 201.338 109.398 C 201.349 109.987 201.828 110.444 202.404 110.434 C 202.638 110.423 202.841 110.325 203.043 110.194 C 203.437 109.954 203.885 109.78 204.311 109.627 C 204.769 109.464 205.249 109.322 205.728 109.289 C 205.728 109.289 205.483 109.267 205.366 109.246 C 204.801 109.169 204.247 109.006 203.704 108.81 C 203.48 108.722 203.256 108.646 203.043 108.548 C 202.819 108.45 202.585 108.308 202.34 108.319 C 201.773 108.337 201.326 108.818 201.338 109.398 L 201.338 109.398 Z " fill="rgb(255,255,255)"/></g></svg>