<?xml version="1.0" standalone="no"?><!-- Generator: Gravit.io --><svg xmlns="http://www.w3.org/2000/svg" xmlns:xlink="http://www.w3.org/1999/xlink" style="isolation:isolate" viewBox="145.398 100.84 58 58" width="64" height="64"><defs><filter id="DBaCJbG2WHGgU5mF1eXRt7qaQKZ8Bb7o" x="145.398" y="100.84" width="58" height="58" filterUnits="userSpaceOnUse"><feGaussianBlur xmlns="http://www.w3.org/2000/svg" in="SourceGraphic" stdDeviation="0.8587218125678057"/><feOffset xmlns="http://www.w3.org/2000/svg" dx="0" dy="0" result="pf_100_offsetBlur"/><feFlood xmlns="http://www.w3.org/2000/svg" flood-color="#000000" flood-opacity="0.65"/><feComposite xmlns="http://www.w3.org/2000/svg" in2="pf_100_offsetBlur" operator="in" result="pf_100_dropShadow"/><feBlend xmlns="http://www.w3.org/2000/svg" in="SourceGraphic" in2="pf_100_dropShadow" mode="normal"/></filter></defs><g filter="url(#DBaCJbG2WHGgU5mF1eXRt7qaQKZ8Bb7o)"><path d=" M 155.462 103.85 C 154.751 103.937 154.126 104.474 153.806 105.271 C 153.806 105.271 152.328 108.469 150.104 108.967 C 148.975 109.225 148.226 110.58 148.432 111.994 C 148.639 113.407 149.722 114.343 150.851 114.085 C 153.022 113.598 154.568 112.156 155.656 110.754 C 156.978 112.492 158.975 114.248 161.889 114.248 C 164.803 114.248 166.8 112.49 168.122 110.754 C 169.445 112.496 171.442 114.248 174.356 114.248 C 177.27 114.248 179.266 112.496 180.589 110.754 C 181.911 112.496 183.908 114.248 186.822 114.248 C 189.736 114.248 191.733 112.496 193.055 110.754 C 194.146 112.162 195.704 113.608 197.892 114.085 C 198.635 114.281 199.404 113.954 199.898 113.232 C 200.392 112.51 200.532 111.509 200.263 110.621 C 199.994 109.732 199.359 109.098 198.607 108.967 C 196.359 108.479 194.906 105.271 194.906 105.271 C 194.544 104.407 193.825 103.868 193.045 103.877 C 192.265 103.885 191.554 104.439 191.204 105.312 C 191.204 105.312 189.627 109.049 186.822 109.049 C 184.017 109.049 182.439 105.312 182.439 105.312 C 182.083 104.443 181.369 103.897 180.589 103.895 C 179.81 103.895 179.095 104.444 178.739 105.312 C 178.739 105.312 177.155 109.049 174.356 109.049 C 171.556 109.049 169.973 105.312 169.973 105.312 C 169.616 104.443 168.902 103.897 168.122 103.895 C 167.343 103.895 166.628 104.444 166.272 105.312 C 166.272 105.312 164.684 109.049 161.889 109.049 C 159.094 109.049 157.506 105.312 157.506 105.312 C 157.132 104.341 156.319 103.759 155.461 103.85 L 155.462 103.85 Z  M 155.462 124.646 C 154.751 124.733 154.126 125.27 153.806 126.068 C 153.806 126.068 152.333 129.265 150.104 129.763 C 148.975 130.022 148.226 131.377 148.432 132.79 C 148.639 134.203 149.722 135.139 150.851 134.882 C 153.022 134.394 154.568 132.953 155.656 131.55 C 156.978 133.287 158.975 135.044 161.889 135.044 C 164.803 135.044 166.8 133.287 168.122 131.55 C 169.445 133.292 171.442 135.044 174.356 135.044 C 177.27 135.044 179.266 133.292 180.589 131.55 C 181.911 133.292 183.908 135.044 186.822 135.044 C 189.736 135.044 191.733 133.292 193.055 131.55 C 194.146 132.958 195.704 134.405 197.892 134.882 C 198.635 135.077 199.404 134.75 199.898 134.028 C 200.392 133.306 200.532 132.305 200.263 131.417 C 199.994 130.528 199.359 129.894 198.607 129.763 C 196.359 129.277 194.906 126.068 194.906 126.068 C 194.544 125.203 193.825 124.664 193.045 124.673 C 192.265 124.681 191.554 125.236 191.204 126.108 C 191.204 126.108 189.627 129.845 186.822 129.845 C 184.017 129.845 182.439 126.108 182.439 126.108 C 182.083 125.24 181.369 124.693 180.589 124.691 C 179.81 124.691 179.095 125.24 178.739 126.108 C 178.739 126.108 177.155 129.845 174.356 129.845 C 171.556 129.845 169.973 126.108 169.973 126.108 C 169.616 125.24 168.902 124.693 168.122 124.691 C 167.343 124.691 166.628 125.24 166.272 126.108 C 166.272 126.108 164.685 129.845 161.889 129.845 C 159.094 129.845 157.506 126.108 157.506 126.108 C 157.132 125.137 156.319 124.556 155.461 124.646 L 155.462 124.646 Z  M 155.462 145.442 C 154.751 145.529 154.126 146.066 153.806 146.864 C 153.806 146.864 152.333 150.062 150.104 150.559 C 148.975 150.818 148.226 152.173 148.432 153.587 C 148.639 154.999 149.722 155.935 150.851 155.678 C 153.022 155.191 154.568 153.749 155.656 152.347 C 156.978 154.083 158.975 155.84 161.889 155.84 C 164.803 155.84 166.8 154.083 168.122 152.347 C 169.445 154.09 171.442 155.84 174.356 155.84 C 177.27 155.84 179.266 154.088 180.589 152.347 C 181.911 154.09 183.908 155.84 186.822 155.84 C 189.736 155.84 191.733 154.088 193.055 152.347 C 194.146 153.754 195.704 155.201 197.892 155.678 C 198.635 155.873 199.404 155.546 199.898 154.825 C 200.392 154.103 200.532 153.102 200.263 152.213 C 199.994 151.325 199.359 150.691 198.607 150.559 C 196.359 150.073 194.906 146.864 194.906 146.864 C 194.544 145.999 193.825 145.461 193.045 145.469 C 192.265 145.478 191.554 146.032 191.204 146.904 C 191.204 146.904 189.627 150.641 186.822 150.641 C 184.017 150.641 182.439 146.904 182.439 146.904 C 182.083 146.036 181.369 145.489 180.589 145.488 C 179.81 145.488 179.095 146.036 178.739 146.904 C 178.739 146.904 177.155 150.641 174.356 150.641 C 171.556 150.641 169.973 146.904 169.973 146.904 C 169.616 146.036 168.902 145.489 168.122 145.488 C 167.343 145.488 166.628 146.036 166.272 146.904 C 166.272 146.904 164.685 150.641 161.889 150.641 C 159.094 150.641 157.506 146.904 157.506 146.904 C 157.132 145.934 156.319 145.352 155.461 145.442 L 155.462 145.442 Z " fill="rgb(255,255,255)"/></g></svg>