<?xml version="1.0" standalone="no"?><!-- Generator: Gravit.io --><svg xmlns="http://www.w3.org/2000/svg" xmlns:xlink="http://www.w3.org/1999/xlink" style="isolation:isolate" viewBox="308.119 194.848 23.5 23.5" width="23.5" height="23.5"><defs><filter id="1EuIpF1PFnhuDCbJXgO7nmv22GmtWmOi" x="308.119" y="194.848" width="23.5" height="23.5" filterUnits="userSpaceOnUse"><feGaussianBlur xmlns="http://www.w3.org/2000/svg" in="SourceGraphic" stdDeviation="0.8587218125678057"/><feOffset xmlns="http://www.w3.org/2000/svg" dx="0" dy="0" result="pf_100_offsetBlur"/><feFlood xmlns="http://www.w3.org/2000/svg" flood-color="#000000" flood-opacity="0.65"/><feComposite xmlns="http://www.w3.org/2000/svg" in2="pf_100_offsetBlur" operator="in" result="pf_100_dropShadow"/><feBlend xmlns="http://www.w3.org/2000/svg" in="SourceGraphic" in2="pf_100_dropShadow" mode="normal"/></filter></defs><g filter="url(#1EuIpF1PFnhuDCbJXgO7nmv22GmtWmOi)"><path d=" M 319.869 197.848 C 316.013 197.848 312.869 200.993 312.869 204.848 C 312.869 208.406 315.551 211.357 318.994 211.794 L 318.994 213.598 L 311.119 213.598 L 311.119 215.348 L 328.619 215.348 L 328.619 213.598 L 320.744 213.598 L 320.744 211.793 C 324.186 211.356 326.869 208.407 326.869 204.848 C 326.869 200.993 323.724 197.848 319.869 197.848 Z  M 319.869 199.598 C 322.777 199.598 325.119 201.94 325.119 204.848 C 325.119 207.757 322.777 210.098 319.869 210.098 C 316.96 210.098 314.619 207.757 314.619 204.848 C 314.619 201.94 316.96 199.598 319.869 199.598 Z  M 321.864 201.594 L 318.638 204.848 L 319.869 206.079 L 323.123 202.853 L 321.864 201.594 Z " fill="rgb(255,255,255)"/></g></svg>