<?xml version="1.0" standalone="no"?><!-- Generator: Gravit.io --><svg xmlns="http://www.w3.org/2000/svg" xmlns:xlink="http://www.w3.org/1999/xlink" style="isolation:isolate" viewBox="129.119 194.537 24 24.692" width="24" height="24.692"><defs><filter id="U1D55AGFD2DNd66vuyagPQzZVntz2ClK" x="129.119" y="194.537" width="24" height="24.692" filterUnits="userSpaceOnUse"><feGaussianBlur xmlns="http://www.w3.org/2000/svg" in="SourceGraphic" stdDeviation="0.8587218125678057"/><feOffset xmlns="http://www.w3.org/2000/svg" dx="0" dy="0" result="pf_100_offsetBlur"/><feFlood xmlns="http://www.w3.org/2000/svg" flood-color="#000000" flood-opacity="0.65"/><feComposite xmlns="http://www.w3.org/2000/svg" in2="pf_100_offsetBlur" operator="in" result="pf_100_dropShadow"/><feBlend xmlns="http://www.w3.org/2000/svg" in="SourceGraphic" in2="pf_100_dropShadow" mode="normal"/></filter></defs><g filter="url(#U1D55AGFD2DNd66vuyagPQzZVntz2ClK)"><path d=" M 141.119 197.537 L 137.657 200.999 L 140.426 200.999 L 140.426 203.768 L 141.811 203.768 L 141.811 200.999 L 144.58 200.999 L 141.119 197.537 Z  M 140.426 206.537 L 140.426 210.76 C 139.631 210.878 138.878 211.192 138.236 211.674 L 135.245 208.683 L 134.266 209.664 L 137.257 212.654 C 136.786 213.282 136.462 214.028 136.343 214.845 L 132.119 214.845 L 132.119 216.229 L 150.119 216.229 L 150.119 214.845 L 145.895 214.845 C 145.779 214.05 145.465 213.296 144.982 212.654 L 147.972 209.664 L 146.992 208.685 L 144.001 211.675 C 143.359 211.192 142.606 210.877 141.811 210.76 L 141.811 206.537 L 140.426 206.537 Z  M 141.119 212.076 C 142.801 212.076 144.191 213.259 144.511 214.845 L 137.726 214.845 C 138.051 213.231 139.472 212.071 141.119 212.076 Z " fill="rgb(255,255,255)"/></g></svg>