<?xml version="1.0" standalone="no"?><!-- Generator: Gravit.io --><svg xmlns="http://www.w3.org/2000/svg" xmlns:xlink="http://www.w3.org/1999/xlink" style="isolation:isolate" viewBox="199.119 194.819 23.396 23.396" width="23.396" height="23.396"><defs><filter id="p4WCLi6gVmJxCiHFlPZJmZkPAiL36RNv" x="199.119" y="194.819" width="23.396" height="23.396" filterUnits="userSpaceOnUse"><feGaussianBlur xmlns="http://www.w3.org/2000/svg" in="SourceGraphic" stdDeviation="0.8587218125678057"/><feOffset xmlns="http://www.w3.org/2000/svg" dx="0" dy="0" result="pf_100_offsetBlur"/><feFlood xmlns="http://www.w3.org/2000/svg" flood-color="#000000" flood-opacity="0.65"/><feComposite xmlns="http://www.w3.org/2000/svg" in2="pf_100_offsetBlur" operator="in" result="pf_100_dropShadow"/><feBlend xmlns="http://www.w3.org/2000/svg" in="SourceGraphic" in2="pf_100_dropShadow" mode="normal"/></filter></defs><g filter="url(#p4WCLi6gVmJxCiHFlPZJmZkPAiL36RNv)"><path d=" M 210.148 197.819 L 210.148 200.495 L 207.471 200.495 L 210.817 203.84 L 214.162 200.495 L 211.486 200.495 L 211.486 197.819 L 210.148 197.819 Z  M 210.148 205.847 L 210.148 209.929 C 209.379 210.043 208.652 210.346 208.031 210.812 L 205.14 207.922 L 204.194 208.869 L 207.084 211.76 C 206.63 212.366 206.316 213.087 206.201 213.876 L 202.119 213.876 L 202.119 215.215 L 219.515 215.215 L 219.515 213.876 L 215.433 213.876 C 215.321 213.108 215.017 212.38 214.55 211.76 L 217.441 208.869 L 216.493 207.923 L 213.603 210.813 C 212.982 210.346 212.254 210.042 211.486 209.929 L 211.486 205.847 L 210.148 205.847 Z  M 210.817 211.2 C 212.442 211.2 213.786 212.344 214.095 213.876 L 207.538 213.876 C 207.852 212.316 209.225 211.196 210.817 211.2 Z " fill="rgb(255,255,255)"/></g></svg>