<?xml version="1.0" standalone="no"?><!-- Generator: Gravit.io --><svg xmlns="http://www.w3.org/2000/svg" xmlns:xlink="http://www.w3.org/1999/xlink" style="isolation:isolate" viewBox="377.322 314 525.678 172" width="525.678" height="172"><g><defs><filter id="deGc6NoIKtM5Cs7uwUA81A12KG4zyRkf" x="377.322" y="314" width="525.678" height="172" filterUnits="userSpaceOnUse"><feGaussianBlur xmlns="http://www.w3.org/2000/svg" in="SourceGraphic" stdDeviation="2.146804531419514"/><feOffset xmlns="http://www.w3.org/2000/svg" dx="0" dy="0" result="pf_100_offsetBlur"/><feFlood xmlns="http://www.w3.org/2000/svg" flood-color="#000000" flood-opacity="0.65"/><feComposite xmlns="http://www.w3.org/2000/svg" in2="pf_100_offsetBlur" operator="in" result="pf_100_dropShadow"/><feBlend xmlns="http://www.w3.org/2000/svg" in="SourceGraphic" in2="pf_100_dropShadow" mode="normal"/></filter></defs><g filter="url(#deGc6NoIKtM5Cs7uwUA81A12KG4zyRkf)"><linearGradient id="_lgradient_9" x1="0" y1="0.5" x2="1" y2="0.5" gradientTransform="matrix(511.678,0,0,158,384.322,321)" gradientUnits="userSpaceOnUse"><stop offset="0%" stop-opacity="1" style="stop-color:rgb(148,130,235)"/><stop offset="100%" stop-opacity="1" style="stop-color:rgb(249,119,177)"/></linearGradient><path d=" M 389.363 321 L 890.959 321 C 893.741 321 896 323.259 896 326.041 L 896 473.959 C 896 476.741 893.741 479 890.959 479 L 389.363 479 C 386.581 479 384.322 476.741 384.322 473.959 L 384.322 326.041 C 384.322 323.259 386.581 321 389.363 321 Z " fill="url(#_lgradient_9)"/></g><defs><filter id="J1dBhKgTwFhE4JXH8TfS41pSOzvYHxUI" x="377.322" y="314" width="525.678" height="172" filterUnits="userSpaceOnUse"><feGaussianBlur xmlns="http://www.w3.org/2000/svg" in="SourceGraphic" stdDeviation="2.146804531419514"/><feOffset xmlns="http://www.w3.org/2000/svg" dx="0" dy="0" result="pf_100_offsetBlur"/><feFlood xmlns="http://www.w3.org/2000/svg" flood-color="#000000" flood-opacity="0.65"/><feComposite xmlns="http://www.w3.org/2000/svg" in2="pf_100_offsetBlur" operator="in" result="pf_100_dropShadow"/><feBlend xmlns="http://www.w3.org/2000/svg" in="SourceGraphic" in2="pf_100_dropShadow" mode="normal"/></filter></defs><g filter="url(#J1dBhKgTwFhE4JXH8TfS41pSOzvYHxUI)"><linearGradient id="_lgradient_10" x1="0.5310100141449219" y1="1.1715546061955435" x2="0.5342725402852747" y2="0.02358040827655783" gradientTransform="matrix(511.678,0,0,158,384.322,321)" gradientUnits="userSpaceOnUse"><stop offset="0%" stop-opacity="1" style="stop-color:rgb(255,255,255)"/><stop offset="100%" stop-opacity="0" style="stop-color:rgb(249,119,177)"/></linearGradient><path d=" M 389.363 321 L 890.959 321 C 893.741 321 896 323.259 896 326.041 L 896 473.959 C 896 476.741 893.741 479 890.959 479 L 389.363 479 C 386.581 479 384.322 476.741 384.322 473.959 L 384.322 326.041 C 384.322 323.259 386.581 321 389.363 321 Z " fill="url(#_lgradient_10)" fill-opacity="0.7"/></g><path d=" M 388.394 479 C 383.813 477.61 383.58 477.655 384.322 469.637 C 406.569 475.251 474.688 449.259 469.828 448.57 L 541.761 452.081 L 594.693 452.081 C 614.145 426.664 674.809 409.923 703.272 413.459 C 768.71 436.289 854.682 437.009 881.07 387.711 C 884.264 386.183 894.224 387.36 896 383.03 L 896 463.785 L 896 475.489 C 894.962 477.129 893.659 478.347 891.928 479 L 803.622 479 L 705.843 479 L 613.612 479 L 445.228 479 L 404.68 479 L 388.394 479 Z " fill="rgb(46,46,46)" fill-opacity="0.2" style="mix-blend-mode:overlay;"/><path d=" M 388.394 479 C 383.813 477.61 383.58 439.033 384.322 431.015 C 404.789 476.595 457.044 452.77 452.184 452.081 C 458.28 444.719 482.167 431.912 501.044 427.504 C 519.921 423.095 533.788 427.084 539.047 427.504 C 550.087 443.267 568.65 451.472 594.693 452.081 C 636.118 451.5 675.226 429.091 695.129 401.756 C 709.834 396.25 728.02 390.178 745.347 391.222 C 813.783 403.18 839.658 377.268 881.07 387.711 C 887.458 384.656 892.448 378.816 896 370.156 L 896 463.785 L 896 475.489 C 894.962 477.129 893.659 478.347 891.928 479 L 803.622 479 L 705.843 479 L 613.612 479 L 445.228 479 L 404.68 479 L 388.394 479 Z " fill="rgb(46,46,46)" fill-opacity="0.2" style="mix-blend-mode:overlay;"/><path d=" M 411.467 479 C 421.058 478.007 459.878 455.003 472.542 440.378 C 503.281 420.454 547.519 448.525 594.693 440.378 C 661.036 441.327 708.613 410.377 741.275 406.437 C 754.202 401.628 779.879 399.513 792.85 404.096 C 853.032 412.775 888.274 408.229 896 395.904 L 896 473.148 L 893.286 477.83 L 887.857 479 L 716.845 479 L 411.467 479 Z " fill="rgb(0,0,0)" fill-opacity="0.2" style="mix-blend-mode:overlay;"/></g></svg>