<?xml version="1.0" standalone="no"?><!-- Generator: Gravit.io --><svg xmlns="http://www.w3.org/2000/svg" xmlns:xlink="http://www.w3.org/1999/xlink" style="isolation:isolate" viewBox="356.618 191.604 34.014 33.896" width="34.014" height="33.896"><g filter="url(#o6TH9A9Fq4rE45ZuwpTcEaFza4kEXkD9)"><line x1="363.12" y1="207.564" x2="372.604" y2="207.564" vector-effect="non-scaling-stroke" stroke-width="1" stroke="rgb(255,255,255)" stroke-linejoin="miter" stroke-linecap="square" stroke-miterlimit="3"/><path d=" M 370.848 203.839 C 371.278 203.237 371.983 202.846 372.778 202.849 C 374.08 202.854 375.131 203.915 375.126 205.217 C 375.121 206.518 374.06 207.57 372.758 207.564" fill="none" vector-effect="non-scaling-stroke" stroke-width="1" stroke="rgb(255,255,255)" stroke-linejoin="miter" stroke-linecap="butt" stroke-miterlimit="3"/><line x1="363.119" y1="211.942" x2="372.565" y2="211.914" vector-effect="non-scaling-stroke" stroke-width="1" stroke="rgb(255,255,255)" stroke-linejoin="miter" stroke-linecap="square" stroke-miterlimit="3"/><path d=" M 369.441 217.407 C 370 218.25 370.913 218.851 371.995 218.976 C 373.944 219.202 375.71 217.803 375.935 215.854 C 376.161 213.906 374.763 212.14 372.814 211.914" fill="none" vector-effect="non-scaling-stroke" stroke-width="1" stroke="rgb(255,255,255)" stroke-linejoin="miter" stroke-linecap="butt" stroke-miterlimit="3"/><line x1="363.119" y1="209.66" x2="378.577" y2="209.705" vector-effect="non-scaling-stroke" stroke-width="1" stroke="rgb(255,255,255)" stroke-linejoin="miter" stroke-linecap="square" stroke-miterlimit="3"/><path d=" M 373.587 200.534 C 374.552 199.189 376.081 198.262 377.859 198.122 C 381.06 197.871 383.862 200.265 384.114 203.466 C 384.365 206.666 381.971 209.469 378.77 209.72" fill="none" vector-effect="non-scaling-stroke" stroke-width="1" stroke="rgb(255,255,255)" stroke-linejoin="miter" stroke-linecap="butt" stroke-miterlimit="3"/></g><defs><filter id="o6TH9A9Fq4rE45ZuwpTcEaFza4kEXkD9" x="356.618" y="191.604" width="34.014" height="33.896" filterUnits="userSpaceOnUse"><feGaussianBlur xmlns="http://www.w3.org/2000/svg" in="SourceGraphic" stdDeviation="0.8587218125678057"/><feOffset xmlns="http://www.w3.org/2000/svg" dx="0" dy="0" result="pf_100_offsetBlur"/><feFlood xmlns="http://www.w3.org/2000/svg" flood-color="#000000" flood-opacity="0.65"/><feComposite xmlns="http://www.w3.org/2000/svg" in2="pf_100_offsetBlur" operator="in" result="pf_100_dropShadow"/><feBlend xmlns="http://www.w3.org/2000/svg" in="SourceGraphic" in2="pf_100_dropShadow" mode="normal"/></filter></defs></svg>